<?xml version="1.0" encoding="UTF-8"?>
<svg id="Layer_1" data-name="Layer 1" xmlns="http://www.w3.org/2000/svg" viewBox="0 0 572 48">
  <defs>
    <style>
      .cls-1 {
        fill: #f25022;
      }

      .cls-1, .cls-2, .cls-3, .cls-4, .cls-5 {
        stroke-width: 0px;
      }

      .cls-2 {
        fill: #ffb900;
      }

      .cls-3 {
        fill: #7fba00;
      }

      .cls-4 {
        fill: #00a4ef;
      }

      .cls-6 {
        font-family: SegoeUI, 'Segoe UI';
        font-size: 39.17px;
        letter-spacing: -.02em;
      }

      .cls-6, .cls-5 {
        fill: #737373;
      }
    </style>
  </defs>
  <g>
    <path class="cls-5" d="M90.02,10.23v27.54h-4.78v-21.61h-.06l-8.54,21.61h-3.19l-8.73-21.61h-.06v21.61h-4.4V10.23h6.88l7.9,20.4h.13l8.35-20.4h6.5ZM94.03,12.34c0-.76.25-1.4.83-1.91.57-.51,1.21-.76,1.98-.76.83,0,1.53.25,2.04.83.51.51.83,1.15.83,1.91s-.25,1.4-.83,1.91c-.57.51-1.21.76-2.04.76s-1.47-.25-1.98-.76c-.57-.64-.83-1.27-.83-1.98ZM99.19,18.01v19.76h-4.65v-19.76h4.65ZM113.28,34.39c.7,0,1.47-.19,2.29-.51s1.59-.76,2.29-1.27v4.33c-.76.45-1.59.76-2.55.96-.96.19-1.98.32-3.12.32-2.93,0-5.29-.89-7.08-2.74-1.85-1.85-2.74-4.21-2.74-7.01,0-3.19.96-5.8,2.8-7.84,1.85-2.04,4.46-3.06,7.9-3.06.89,0,1.72.13,2.61.32.89.25,1.59.51,2.1.76v4.46c-.7-.51-1.47-.96-2.17-1.21-.76-.32-1.53-.45-2.29-.45-1.85,0-3.31.57-4.46,1.78-1.15,1.21-1.72,2.8-1.72,4.84s.51,3.57,1.59,4.65c1.21,1.08,2.68,1.66,4.53,1.66ZM131.06,17.69c.38,0,.7,0,1.02.06s.57.13.76.19v4.72c-.25-.19-.57-.32-1.08-.51-.45-.19-1.02-.25-1.72-.25-1.15,0-2.1.51-2.87,1.47s-1.21,2.42-1.21,4.46v9.94h-4.65v-19.76h4.65v3.12h.06c.45-1.08,1.08-1.91,1.91-2.55.89-.57,1.91-.89,3.12-.89ZM133.1,28.21c0-3.25.89-5.86,2.74-7.78,1.85-1.91,4.4-2.87,7.71-2.87,3.06,0,5.48.89,7.2,2.74,1.72,1.85,2.61,4.33,2.61,7.46s-.89,5.74-2.74,7.65c-1.85,1.91-4.33,2.87-7.52,2.87s-5.48-.89-7.27-2.68c-1.85-1.85-2.74-4.33-2.74-7.39ZM137.95,28.02c0,2.04.45,3.63,1.4,4.72.96,1.08,2.29,1.66,4.02,1.66s3-.57,3.89-1.66c.89-1.08,1.34-2.68,1.34-4.84s-.45-3.7-1.4-4.78c-.89-1.08-2.17-1.59-3.82-1.59s-3,.57-3.95,1.72c-1.02,1.08-1.47,2.68-1.47,4.78ZM160.26,23.24c0,.64.19,1.21.64,1.59s1.34.83,2.8,1.4c1.85.76,3.19,1.59,3.89,2.49.76.96,1.15,2.04,1.15,3.38,0,1.85-.7,3.38-2.17,4.46-1.4,1.15-3.38,1.72-5.8,1.72-.83,0-1.72-.13-2.74-.32-1.02-.19-1.85-.45-2.55-.76v-4.59c.83.57,1.78,1.08,2.74,1.4s1.85.51,2.68.51c1.02,0,1.85-.13,2.29-.45.51-.32.76-.76.76-1.47,0-.64-.25-1.21-.76-1.59-.51-.45-1.53-.96-2.93-1.53-1.72-.7-2.93-1.53-3.63-2.42-.7-.89-1.08-2.04-1.08-3.44,0-1.78.7-3.25,2.1-4.4,1.4-1.15,3.25-1.72,5.48-1.72.7,0,1.47.06,2.29.25.83.13,1.59.38,2.17.57v4.4c-.64-.38-1.34-.76-2.17-1.08s-1.66-.45-2.42-.45c-.89,0-1.59.19-2.04.51-.45.45-.7.89-.7,1.53ZM170.71,28.21c0-3.25.89-5.86,2.74-7.78,1.85-1.91,4.4-2.87,7.71-2.87,3.06,0,5.48.89,7.2,2.74,1.72,1.85,2.61,4.33,2.61,7.46s-.89,5.74-2.74,7.65c-1.85,1.91-4.33,2.87-7.52,2.87s-5.48-.89-7.27-2.68c-1.78-1.85-2.74-4.33-2.74-7.39ZM175.55,28.02c0,2.04.45,3.63,1.4,4.72.96,1.08,2.29,1.66,4.02,1.66s3-.57,3.89-1.66,1.34-2.68,1.34-4.84-.45-3.7-1.4-4.78c-.89-1.08-2.17-1.59-3.82-1.59s-3,.57-3.95,1.72c-.96,1.08-1.47,2.68-1.47,4.78ZM206.4,21.83h-6.95v15.93h-4.72v-15.93h-3.31v-3.82h3.31v-2.74c0-2.1.7-3.76,2.04-5.1s3.06-1.98,5.16-1.98c.57,0,1.08,0,1.53.06.45.06.83.13,1.15.25v4.02c-.13-.06-.45-.19-.83-.32-.38-.13-.83-.19-1.34-.19-.96,0-1.72.32-2.23.89-.51.64-.76,1.53-.76,2.68v2.36h6.95v-4.46l4.65-1.4v5.86h4.72v3.82h-4.72v9.24c0,1.21.19,2.1.64,2.55.45.51,1.15.76,2.1.76.25,0,.57-.06.96-.19.38-.13.7-.25,1.02-.45v3.82c-.32.19-.76.32-1.47.45-.7.13-1.34.19-2.04.19-1.98,0-3.44-.51-4.4-1.59-.96-1.02-1.47-2.61-1.47-4.72v-10.01Z"/>
    <g>
      <rect class="cls-1" x=".59" y="1.05" width="21.8" height="21.8"/>
      <rect class="cls-3" x="24.68" y="1.05" width="21.8" height="21.8"/>
      <rect class="cls-4" x=".59" y="25.15" width="21.8" height="21.8"/>
      <rect class="cls-2" x="24.68" y="25.15" width="21.8" height="21.8"/>
    </g>
  </g>
  <text class="cls-6" transform="translate(308.26 38.11)"><tspan x="0" y="0">AI for Good Lab </tspan></text>
  <rect class="cls-5" x="261.66" y="1.05" width="1.37" height="45.89"/>
</svg>