<svg viewBox="0 0 110 23" fill="none" xmlns="http://www.w3.org/2000/svg">
<path d="M78.9548 12.5115H67.9888V14.7047H78.9548V12.5115Z" fill="white"></path>
<path d="M78.9548 8.12507H67.9888V10.3183H78.9548V8.12507Z" fill="white"></path>
<path d="M93.6508 5.93277H90.5404L82.2448 12.5124V14.7056H90.5404V16.8987H93.6508V14.7056H95.9556V12.5124H93.6508V5.93277ZM90.5397 12.5117H85.5174L90.5397 8.52811V12.5117Z" fill="white"></path>
<path d="M109.66 9.02414C109.66 8.48725 109.525 7.99808 109.253 7.58049C108.982 7.16291 108.594 6.8148 108.089 6.53618C107.585 6.25756 106.975 6.04631 106.262 5.90243C105.548 5.75786 104.749 5.68557 103.864 5.68557C102.979 5.68557 102.16 5.76909 101.439 5.93542C100.718 6.10175 100.095 6.34669 99.5706 6.67023C99.0456 6.99377 98.6217 7.38679 98.2989 7.84929C97.9754 8.31179 97.762 8.84377 97.6574 9.44594H101.051C101.106 9.15749 101.206 8.90623 101.35 8.69218C101.494 8.47812 101.684 8.30337 101.92 8.16651C102.157 8.02966 102.436 7.92789 102.76 7.86052C103.083 7.79314 103.438 7.75946 103.826 7.75946C104.215 7.75946 104.589 7.78823 104.904 7.84508C105.22 7.90263 105.491 7.98544 105.717 8.09493C105.944 8.20441 106.119 8.33986 106.244 8.50128C106.368 8.6634 106.43 8.85921 106.43 9.08309C106.43 9.22205 106.413 9.35189 106.378 9.46348C106.342 9.57507 106.286 9.68105 106.206 9.7807C106.126 9.88036 106.027 9.9709 105.908 10.053C105.789 10.1351 105.644 10.2123 105.475 10.2846C105.306 10.3569 105.109 10.4243 104.882 10.486C104.656 10.5485 104.405 10.6117 104.132 10.6762L102.663 10.952C101.972 11.0966 101.357 11.2644 100.821 11.4553C100.284 11.6469 99.8141 11.863 99.4141 12.1044C99.0141 12.3459 98.6744 12.6147 98.3958 12.9101C98.1171 13.2063 97.8947 13.539 97.7283 13.9095C97.5613 14.2801 97.4399 14.6864 97.3627 15.1293C97.2855 15.5721 97.2469 16.0592 97.2469 16.5912V16.8972H109.66V14.704H100.894C100.909 14.5594 100.951 14.3559 101.021 14.2268C101.091 14.0976 101.188 13.9797 101.312 13.8723C101.436 13.7657 101.583 13.6674 101.752 13.5776C101.92 13.4884 102.118 13.4014 102.341 13.3165C102.565 13.2316 102.812 13.1523 103.08 13.0779C103.348 13.0035 103.644 12.934 103.968 12.8687L105.512 12.5775C106.004 12.468 106.446 12.3501 106.839 12.223C107.232 12.096 107.581 11.9571 107.887 11.8055C108.193 11.6539 108.458 11.4819 108.682 11.2903C108.906 11.0987 109.089 10.8903 109.23 10.6636C109.372 10.4376 109.478 10.1899 109.551 9.92107C109.623 9.65227 109.659 9.34557 109.659 9.02203L109.66 9.02414Z" fill="white"></path>
<path d="M64.6996 5.93259H75.6656V0.449951H0V22.3819H75.6656V16.8993H64.6996V5.93259ZM18.053 13.5937C18.053 14.1853 17.9049 14.7012 17.6094 15.1419C17.3133 15.5819 16.8936 15.9504 16.349 16.2459C15.8043 16.542 15.1481 16.7659 14.3796 16.9175C13.6111 17.0691 12.75 17.1449 11.7948 17.1449C10.8396 17.1449 10.0529 17.0614 9.29985 16.8951C8.54609 16.7287 7.88708 16.4908 7.32281 16.1827C6.75855 15.8746 6.29815 15.4977 5.94303 15.0528C5.58721 14.6078 5.3521 14.1095 5.2377 13.5572H8.62469C8.67944 13.7263 8.76295 13.8814 8.87454 14.0232C8.98613 14.165 9.11667 14.2927 9.26616 14.4071C9.41495 14.5215 9.58689 14.6233 9.78059 14.7131C9.9743 14.8029 10.1834 14.8731 10.4073 14.9257C10.6312 14.9777 10.8747 15.0191 11.1386 15.0486C11.4018 15.0787 11.6706 15.0935 11.9443 15.0935C12.2328 15.0935 12.5065 15.0808 12.7647 15.0563C13.023 15.0317 13.2616 15.0001 13.4806 14.9629C13.6996 14.9257 13.8982 14.8731 14.0772 14.8057C14.2561 14.7384 14.4056 14.6605 14.5249 14.5706C14.6442 14.4815 14.7376 14.3769 14.8042 14.2576C14.8709 14.1383 14.9053 14.0141 14.9053 13.8849V13.8702C14.9053 13.6765 14.8534 13.5081 14.7488 13.367C14.6442 13.2252 14.4772 13.1045 14.2491 13.0049C14.0203 12.9052 13.7333 12.8231 13.3873 12.7585C13.0413 12.6939 12.6349 12.6364 12.1675 12.5866L10.2726 12.3851C9.48653 12.3058 8.79173 12.1816 8.18746 12.0125C7.58319 11.8433 7.07437 11.6223 6.6617 11.3486C6.24903 11.0748 5.93812 10.7471 5.72898 10.3639C5.51983 9.9814 5.41596 9.53855 5.41596 9.03605V9.02131C5.41596 8.66829 5.48404 8.34124 5.62089 8.04016C5.75775 7.73908 5.95426 7.46326 6.20972 7.21201C6.46589 6.96076 6.77539 6.74109 7.13823 6.5516C7.50108 6.36281 7.90533 6.20349 8.35028 6.07436C8.79524 5.94522 9.27669 5.84767 9.79393 5.7831C10.3112 5.71853 10.853 5.68625 11.4201 5.68625C12.2454 5.68625 13.009 5.75994 13.7101 5.90662C14.4112 6.0533 15.0281 6.26946 15.5601 6.55581C16.0921 6.84145 16.5335 7.19587 16.8844 7.61907C17.2354 8.04157 17.4803 8.52442 17.6192 9.06623H14.2175C14.1375 8.83743 14.0014 8.64373 13.807 8.48442C13.6132 8.3251 13.3845 8.18965 13.1206 8.07806C12.8567 7.96577 12.5612 7.88295 12.2328 7.82821C11.9043 7.77347 11.559 7.7461 11.1955 7.7461C10.9618 7.7461 10.7344 7.75592 10.5126 7.77557C10.2915 7.79593 10.0796 7.82681 9.87815 7.86892C9.67673 7.91103 9.49285 7.96226 9.32652 8.02191C9.15948 8.08157 9.01772 8.15105 8.90121 8.23036C8.78401 8.30966 8.69207 8.40441 8.62469 8.51389C8.55802 8.62338 8.52433 8.73988 8.52433 8.8641V8.87182C8.52433 9.03605 8.56785 9.18133 8.65487 9.30836C8.7419 9.43468 8.88718 9.54627 9.09141 9.64032C9.29564 9.73506 9.55882 9.81437 9.88236 9.87894C10.2059 9.94351 10.6031 9.99544 11.0762 10.0354L12.9858 10.2593C13.7866 10.3442 14.5039 10.4643 15.1383 10.6215C15.7721 10.778 16.304 10.9878 16.7342 11.2517C17.1645 11.5156 17.4915 11.8363 17.7154 12.2139C17.9393 12.5922 18.0509 13.0421 18.0509 13.5642V13.5937H18.053ZM29.4281 9.52732C29.4281 9.77577 29.386 9.99404 29.3011 10.1653C29.2162 10.3372 29.0919 10.4811 28.9277 10.5983C28.7635 10.7155 28.5557 10.7997 28.3052 10.8517C28.0539 10.9043 27.762 10.9303 27.4286 10.9303H24.0121V8.12508H27.4286C27.762 8.12508 28.0539 8.15245 28.3052 8.2072C28.5564 8.26194 28.7642 8.34545 28.9277 8.45704C29.0919 8.56863 29.2162 8.7104 29.3011 8.88235C29.3853 9.0543 29.4281 9.27397 29.4281 9.52732ZM32.7105 9.52803C32.7105 10.1948 32.5912 10.7667 32.3526 11.2292C32.114 11.6917 31.7771 12.0609 31.342 12.3367C30.9069 12.6125 30.3875 12.8119 29.7832 12.934C29.179 13.0561 28.5087 13.1164 27.7725 13.1164H24.0571V16.8986H20.9389V5.93259H27.7725C28.5087 5.93259 29.179 5.99365 29.7832 6.11506C30.3875 6.23718 30.9069 6.4372 31.342 6.71512C31.7771 6.99374 32.114 7.3615 32.3526 7.81909C32.5912 8.27668 32.7105 8.85147 32.7105 9.52803ZM51.3544 11.4152C51.3544 11.7935 51.4008 12.1486 51.4927 12.4673C51.5846 12.7852 51.7117 13.0729 51.8731 13.3284C52.0345 13.5846 52.2324 13.8098 52.4661 14.0035C52.6998 14.1973 52.956 14.3594 53.2346 14.4885C53.5132 14.6176 53.815 14.7173 54.1414 14.7868C54.467 14.8563 54.8039 14.8914 55.152 14.8914C55.5401 14.8914 55.9156 14.8556 56.2784 14.7833C56.6413 14.711 56.9711 14.6043 57.2673 14.4625C57.5628 14.3208 57.8231 14.1369 58.047 13.9109C58.2709 13.6849 58.4471 13.4224 58.5769 13.1242H61.8965C61.7274 13.7705 61.4438 14.3397 61.0459 14.8324C60.648 15.3251 60.1553 15.7427 59.5686 16.0859C58.9818 16.429 58.3116 16.6915 57.5578 16.8726C56.8048 17.0544 55.99 17.1449 55.1148 17.1449C54.0852 17.1449 53.1413 17.0116 52.2837 16.7456C51.426 16.4796 50.687 16.0964 50.068 15.5967C49.449 15.097 48.969 14.4976 48.6286 13.7986C48.2882 13.0996 48.1176 12.3002 48.1176 11.4152C48.1176 10.5302 48.2882 9.73085 48.6286 9.03184C48.969 8.33282 49.449 7.73347 50.068 7.23377C50.687 6.73407 51.426 6.35087 52.2837 6.08488C53.1413 5.81889 54.0852 5.68555 55.1148 5.68555C55.99 5.68555 56.8041 5.77679 57.5578 5.95786C58.3116 6.13963 58.9811 6.40141 59.5686 6.7446C60.156 7.08779 60.648 7.50678 61.0459 8.00156C61.4438 8.49635 61.7274 9.06482 61.8965 9.70629H58.5769C58.4478 9.40801 58.2709 9.14974 58.047 8.93078C57.8231 8.71181 57.5635 8.52793 57.2673 8.37844C56.9711 8.22895 56.642 8.11877 56.2784 8.04648C55.9156 7.97419 55.5401 7.9384 55.152 7.9384C54.799 7.9384 54.4607 7.97349 54.1379 8.04297C53.8143 8.11245 53.514 8.21211 53.2353 8.34124C52.9567 8.47038 52.7005 8.6318 52.4668 8.8262C52.2331 9.01991 52.0352 9.24519 51.8738 9.50136C51.7124 9.75752 51.5853 10.046 51.4934 10.3667C51.4015 10.6874 51.3544 11.0419 51.3544 11.4152ZM39.9218 8.2072L36.1733 16.8979H32.9056L37.904 5.93189H41.9395L46.9379 16.8979H43.6702L39.9218 8.2072Z" fill="white"></path>
</svg>