<svg viewBox="0 0 110 23" fill="none" xmlns="http://www.w3.org/2000/svg">
<path fill="#121A6B" d="M79.2003 12.1147H68.2003V14.3147H79.2003V12.1147Z"></path>
<path fill="#121A6B" d="M79.2002 7.71474H68.2002V9.91474H79.2002V7.71474Z"></path>
<path fill="#121A6B" d="M93.9418 5.51543H90.8216L82.5004 12.1154V14.3154H90.8216V16.5154H93.9418V14.3154H96.2537V12.1154H93.9418V5.51543ZM90.8209 12.1147H85.7831L90.8209 8.11883V12.1147Z"></path>
<path fill="#121A6B" d="M110 8.61661C110 8.07805 109.864 7.58737 109.592 7.16849C109.32 6.74961 108.931 6.40042 108.425 6.12093C107.918 5.84145 107.307 5.62954 106.591 5.48522C105.875 5.3402 105.073 5.26769 104.186 5.26769C103.298 5.26769 102.477 5.35146 101.753 5.51831C101.03 5.68516 100.405 5.93085 99.8794 6.2554C99.3528 6.57994 98.9276 6.97418 98.6037 7.43812C98.2792 7.90205 98.0652 8.43569 97.9603 9.03972H101.365C101.42 8.75037 101.52 8.49834 101.664 8.28362C101.809 8.0689 102 7.89361 102.236 7.75633C102.474 7.61905 102.754 7.51697 103.078 7.44938C103.403 7.3818 103.759 7.34801 104.148 7.34801C104.538 7.34801 104.913 7.37687 105.23 7.43389C105.547 7.49162 105.818 7.57469 106.045 7.68452C106.272 7.79434 106.448 7.93021 106.573 8.09213C106.698 8.25476 106.76 8.45117 106.76 8.67575C106.76 8.81514 106.743 8.94538 106.707 9.05732C106.672 9.16925 106.615 9.27556 106.536 9.37553C106.455 9.47549 106.356 9.56631 106.237 9.64868C106.117 9.73104 105.972 9.80849 105.802 9.881C105.632 9.95351 105.435 10.0211 105.207 10.083C104.981 10.1457 104.729 10.2091 104.455 10.2738L102.981 10.5505C102.288 10.6955 101.672 10.8638 101.133 11.0553C100.595 11.2475 100.124 11.4643 99.7224 11.7065C99.3211 11.9486 98.9804 12.2183 98.7009 12.5147C98.4214 12.8117 98.1982 13.1454 98.0314 13.5172C97.8638 13.8889 97.742 14.2965 97.6646 14.7407C97.5872 15.1849 97.5484 15.6735 97.5484 16.2071V16.5141H110V14.3141H101.207C101.222 14.1691 101.264 13.9649 101.335 13.8354C101.404 13.7058 101.501 13.5876 101.626 13.4798C101.751 13.3728 101.898 13.2743 102.067 13.1842C102.236 13.0948 102.434 13.0075 102.659 12.9223C102.883 12.8371 103.13 12.7575 103.399 12.6829C103.668 12.6083 103.965 12.5386 104.29 12.4731L105.839 12.181C106.333 12.0711 106.776 11.9529 107.171 11.8254C107.565 11.698 107.915 11.5586 108.222 11.4066C108.529 11.2545 108.794 11.082 109.019 10.8898C109.243 10.6976 109.427 10.4885 109.569 10.2612C109.711 10.0345 109.818 9.78596 109.89 9.51633C109.963 9.24669 109.999 8.93905 109.999 8.6145L110 8.61661Z"></path>
<path fill="#121A6B" d="M64.9004 5.5154H75.9004V0.0157471H0V22.0157H75.9004V16.5161H64.9004V5.5154ZM18.109 13.2003C18.109 13.7937 17.9604 14.3112 17.6641 14.7533C17.367 15.1947 16.946 15.5643 16.3997 15.8607C15.8534 16.1578 15.1951 16.3823 14.4243 16.5344C13.6534 16.6865 12.7896 16.7625 11.8314 16.7625C10.8733 16.7625 10.0841 16.6787 9.3287 16.5119C8.57261 16.345 7.91155 16.1064 7.34554 15.7973C6.77952 15.4883 6.3177 15.1102 5.96147 14.6639C5.60454 14.2175 5.3687 13.7177 5.25395 13.1636H8.65146C8.70637 13.3333 8.79014 13.4889 8.90208 13.6311C9.01402 13.7733 9.14496 13.9014 9.29491 14.0162C9.44416 14.1309 9.61664 14.233 9.81094 14.3231C10.0052 14.4132 10.215 14.4836 10.4396 14.5364C10.6642 14.5885 10.9085 14.6301 11.1732 14.6596C11.4372 14.6899 11.7068 14.7047 11.9814 14.7047C12.2707 14.7047 12.5453 14.692 12.8044 14.6674C13.0634 14.6428 13.3028 14.6111 13.5224 14.5738C13.7421 14.5364 13.9413 14.4837 14.1208 14.4161C14.3004 14.3485 14.4503 14.2703 14.57 14.1802C14.6897 14.0908 14.7833 13.9859 14.8502 13.8662C14.9171 13.7466 14.9516 13.622 14.9516 13.4924V13.4776C14.9516 13.2833 14.8995 13.1144 14.7946 12.9729C14.6897 12.8307 14.5221 12.7096 14.2933 12.6096C14.0638 12.5096 13.7759 12.4273 13.4288 12.3625C13.0817 12.2977 12.6741 12.24 12.2052 12.19L10.3044 11.988C9.51597 11.9084 8.81901 11.7838 8.21286 11.6141C7.60672 11.4445 7.09632 11.2227 6.68237 10.9482C6.26842 10.6736 5.95654 10.3448 5.74675 9.96045C5.53696 9.57677 5.43277 9.13255 5.43277 8.62848V8.6137C5.43277 8.25959 5.50106 7.93152 5.63834 7.62951C5.77562 7.32749 5.97274 7.05082 6.22899 6.79879C6.48595 6.54676 6.79642 6.3264 7.16038 6.13632C7.52435 5.94695 7.92986 5.78714 8.37619 5.6576C8.82253 5.52807 9.30547 5.43021 9.82432 5.36544C10.3432 5.30067 10.8867 5.26829 11.4555 5.26829C12.2834 5.26829 13.0493 5.34221 13.7526 5.48935C14.4559 5.63648 15.0748 5.85331 15.6084 6.14055C16.142 6.42707 16.5848 6.7826 16.9368 7.20711C17.2888 7.63092 17.5345 8.11527 17.6739 8.65875H14.2616C14.1814 8.42925 14.0448 8.23495 13.8498 8.07514C13.6555 7.91533 13.426 7.77946 13.1613 7.66752C12.8966 7.55488 12.6002 7.47181 12.2707 7.4169C11.9412 7.36199 11.5949 7.33453 11.2302 7.33453C10.9958 7.33453 10.7677 7.34439 10.5452 7.3641C10.3235 7.38452 10.1108 7.41549 9.9088 7.45773C9.70675 7.49997 9.5223 7.55136 9.35546 7.6112C9.1879 7.67104 9.0457 7.74074 8.92883 7.82029C8.81126 7.89984 8.71904 7.99488 8.65146 8.10471C8.58458 8.21453 8.55078 8.33139 8.55078 8.456V8.46375C8.55078 8.62848 8.59443 8.77421 8.68173 8.90163C8.76902 9.02835 8.91475 9.14029 9.11962 9.23463C9.32448 9.32967 9.58848 9.40922 9.91302 9.47399C10.2376 9.53876 10.636 9.59085 11.1105 9.63098L13.0261 9.85555C13.8294 9.94074 14.5489 10.0611 15.1853 10.2188C15.821 10.3758 16.3546 10.5863 16.7862 10.851C17.2177 11.1157 17.5458 11.4374 17.7704 11.8162C17.9949 12.1957 18.1069 12.6469 18.1069 13.1707V13.2003H18.109ZM29.5194 9.12128C29.5194 9.3705 29.4772 9.58944 29.392 9.76122C29.3068 9.9337 29.1822 10.078 29.0175 10.1956C28.8527 10.3132 28.6444 10.3976 28.393 10.4497C28.141 10.5025 27.8481 10.5286 27.5137 10.5286H24.0867V7.71469H27.5137C27.8481 7.71469 28.141 7.74215 28.393 7.79706C28.6451 7.85197 28.8534 7.93575 29.0175 8.04768C29.1822 8.15962 29.3068 8.30183 29.392 8.47431C29.4765 8.64679 29.5194 8.86714 29.5194 9.12128ZM32.812 9.12199C32.812 9.79079 32.6924 10.3645 32.453 10.8285C32.2136 11.2924 31.8757 11.6627 31.4392 11.9394C31.0028 12.2161 30.4818 12.416 29.8756 12.5385C29.2695 12.661 28.5972 12.7215 27.8587 12.7215H24.1317V16.5154H21.0038V5.5154H27.8587C28.5972 5.5154 29.2695 5.57664 29.8756 5.69843C30.4818 5.82093 31.0028 6.02157 31.4392 6.30035C31.8757 6.57984 32.2136 6.94874 32.453 7.40775C32.6924 7.86675 32.812 8.44333 32.812 9.12199ZM51.5138 11.015C51.5138 11.3945 51.5603 11.7507 51.6525 12.0703C51.7447 12.3892 51.8721 12.6779 52.034 12.9341C52.196 13.1911 52.3945 13.4171 52.6289 13.6114C52.8634 13.8057 53.1203 13.9683 53.3998 14.0979C53.6793 14.2274 53.982 14.3274 54.3094 14.3971C54.636 14.4668 54.974 14.502 55.3231 14.502C55.7125 14.502 56.0891 14.466 56.4531 14.3935C56.817 14.321 57.1479 14.214 57.445 14.0718C57.7414 13.9296 58.0026 13.7452 58.2271 13.5185C58.4517 13.2918 58.6284 13.0285 58.7587 12.7293H62.0886C61.9189 13.3777 61.6345 13.9486 61.2353 14.4428C60.8362 14.937 60.342 15.3559 59.7534 15.7002C59.1649 16.0444 58.4925 16.3077 57.7364 16.4893C56.9811 16.6717 56.1637 16.7625 55.2858 16.7625C54.2531 16.7625 53.3062 16.6287 52.4459 16.3619C51.5856 16.0951 50.8443 15.7107 50.2234 15.2095C49.6024 14.7082 49.1209 14.107 48.7795 13.4058C48.438 12.7046 48.2669 11.9028 48.2669 11.015C48.2669 10.1273 48.438 9.32544 48.7795 8.62426C49.1209 7.92307 49.6024 7.32186 50.2234 6.82061C50.8443 6.31936 51.5856 5.93498 52.4459 5.66816C53.3062 5.40135 54.2531 5.26759 55.2858 5.26759C56.1637 5.26759 56.9804 5.35911 57.7364 5.54074C58.4925 5.72308 59.1642 5.98567 59.7534 6.32992C60.3427 6.67418 60.8362 7.09447 61.2353 7.59079C61.6345 8.08711 61.9189 8.65735 62.0886 9.3008H58.7587C58.6291 9.0016 58.4517 8.74253 58.2271 8.52288C58.0026 8.30324 57.7421 8.11879 57.445 7.96883C57.1479 7.81888 56.8177 7.70835 56.4531 7.63584C56.0891 7.56333 55.7125 7.52743 55.3231 7.52743C54.969 7.52743 54.6297 7.56263 54.3059 7.63232C53.9813 7.70202 53.68 7.80199 53.4005 7.93152C53.121 8.06106 52.8641 8.22298 52.6296 8.41799C52.3952 8.61229 52.1967 8.83827 52.0348 9.09523C51.8728 9.35219 51.7454 9.64154 51.6532 9.96327C51.561 10.285 51.5138 10.6405 51.5138 11.015ZM40.0456 7.79706L36.2856 16.5147H33.0077L38.0216 5.51469H42.0696L47.0835 16.5147H43.8057L40.0456 7.79706Z"></path>
</svg>